<svg xmlns="http://www.w3.org/2000/svg" width="375" viewBox="0 0 375 375" height="375" version="1.0"><defs><clipPath id="a"><path d="M 119.179688 0 L 255.679688 0 L 255.679688 375 L 119.179688 375 Z M 119.179688 0"/></clipPath><clipPath id="b"><path d="M 144.023438 0 L 255.667969 0 L 255.667969 374.992188 L 144.023438 374.992188 Z M 144.023438 0"/></clipPath></defs><g clip-path="url(#a)"><path fill="#F15CFF" d="M 234.851562 130.304688 L 186.1875 130.304688 L 236.183594 0 L 119.1875 172.1875 L 171.324219 172.1875 L 144.816406 222.496094 L 192.136719 222.640625 L 144.074219 374.992188 L 255.664062 180.757812 L 207 180.757812 L 234.851562 130.304688"/></g><g clip-path="url(#b)"><path fill="#4CC9F0" d="M 236.183594 0 L 161.691406 151.179688 L 200.550781 150.71875 L 176.898438 202.378906 L 222.515625 201.457031 L 144.074219 374.992188 L 255.664062 180.757812 L 207 180.757812 L 234.851562 130.304688 L 186.1875 130.304688 L 236.183594 0"/></g></svg>