<svg xmlns="http://www.w3.org/2000/svg" width="375" viewBox="0 0 375 375" height="375" version="1.0"><defs><clipPath id="a"><path d="M 173.570312 142.21875 L 204.320312 142.21875 L 204.320312 225.46875 L 173.570312 225.46875 Z M 173.570312 142.21875"/></clipPath><clipPath id="b"><path d="M 179.167969 142.21875 L 204.320312 142.21875 L 204.320312 225.460938 L 179.167969 225.460938 Z M 179.167969 142.21875"/></clipPath></defs><g clip-path="url(#a)"><path fill="#F15CFF" d="M 199.632812 171.144531 L 188.667969 171.144531 L 199.929688 142.21875 L 173.570312 180.441406 L 185.316406 180.441406 L 179.34375 191.609375 L 190.007812 191.644531 L 179.179688 225.460938 L 204.320312 182.347656 L 193.355469 182.347656 L 199.632812 171.144531"/></g><g clip-path="url(#b)"><path fill="#4CC9F0" d="M 199.929688 142.21875 L 183.148438 175.78125 L 191.902344 175.675781 L 186.574219 187.144531 L 196.851562 186.941406 L 179.179688 225.460938 L 204.320312 182.347656 L 193.355469 182.347656 L 199.632812 171.144531 L 188.667969 171.144531 L 199.929688 142.21875"/></g><g fill="#A6A6A6" fill-opacity=".4"><g><g><path d="M 18.558594 -3.199219 C 18.816406 -2.6875 19.136719 -2.238281 19.582031 -1.792969 C 20.734375 -0.574219 22.078125 0 23.613281 0 L 28.800781 0 C 30.335938 0 31.679688 -0.574219 32.832031 -1.726562 C 33.984375 -2.878906 34.558594 -4.351562 34.558594 -6.078125 L 34.558594 -44.476562 L 27.519531 -44.476562 L 27.519531 -6.71875 L 22.078125 -6.71875 L 22.078125 -44.476562 L 15.039062 -44.476562 L 15.039062 -6.71875 L 9.601562 -6.71875 L 9.601562 -44.476562 L 2.558594 -44.476562 L 2.558594 -6.078125 C 2.558594 -4.414062 3.070312 -2.945312 4.222656 -1.792969 C 5.375 -0.574219 6.71875 0 8.320312 0 L 13.375 0 C 14.976562 0 16.320312 -0.574219 17.472656 -1.726562 C 17.917969 -2.175781 18.304688 -2.6875 18.558594 -3.199219 Z M 18.558594 -3.199219" transform="translate(71.765 208.11)"/></g></g></g><g fill="#A6A6A6" fill-opacity=".4"><g><g><path d="M 9.601562 0 L 9.601562 -28.800781 L 14.71875 -28.800781 L 14.71875 0 L 21.757812 0 L 21.757812 -29.4375 C 21.757812 -31.101562 21.183594 -32.574219 20.03125 -33.726562 C 18.878906 -34.878906 17.535156 -35.519531 16 -35.519531 L 14.71875 -35.519531 C 13.121094 -35.519531 11.777344 -34.878906 10.625 -33.726562 C 10.175781 -33.277344 9.855469 -32.765625 9.601562 -32.253906 L 9.601562 -46.078125 L 2.558594 -42.558594 L 2.558594 0 Z M 9.601562 0" transform="translate(108.883 208.11)"/></g></g></g><g fill="#A6A6A6" fill-opacity=".4"><g><g><path d="M 2.558594 -42.558594 L 2.558594 -36.160156 L 9.601562 -39.679688 L 9.601562 -46.078125 Z M 2.558594 0 L 9.601562 0 L 9.601562 -36.480469 L 2.558594 -32.957031 Z M 2.558594 0" transform="translate(133.202 208.11)"/></g></g></g><g fill="#A6A6A6" fill-opacity=".4"><g><g><path d="M 18.175781 -35.519531 L 1.921875 -35.519531 L 1.921875 -28.800781 L 10.878906 -28.800781 L 1.921875 -6.71875 L 1.921875 0 L 18.238281 0 L 18.238281 -6.71875 L 9.28125 -6.71875 L 18.175781 -28.800781 Z M 18.175781 -35.519531" transform="translate(145.36 208.11)"/></g></g></g><g fill="#FFF"><g><g><path d="M 18.558594 -3.199219 C 18.816406 -2.6875 19.136719 -2.238281 19.582031 -1.792969 C 20.734375 -0.574219 22.078125 0 23.613281 0 L 28.800781 0 C 30.335938 0 31.679688 -0.574219 32.832031 -1.726562 C 33.984375 -2.878906 34.558594 -4.351562 34.558594 -6.078125 L 34.558594 -44.476562 L 27.519531 -44.476562 L 27.519531 -6.71875 L 22.078125 -6.71875 L 22.078125 -44.476562 L 15.039062 -44.476562 L 15.039062 -6.71875 L 9.601562 -6.71875 L 9.601562 -44.476562 L 2.558594 -44.476562 L 2.558594 -6.078125 C 2.558594 -4.414062 3.070312 -2.945312 4.222656 -1.792969 C 5.375 -0.574219 6.71875 0 8.320312 0 L 13.375 0 C 14.976562 0 16.320312 -0.574219 17.472656 -1.726562 C 17.917969 -2.175781 18.304688 -2.6875 18.558594 -3.199219 Z M 18.558594 -3.199219" transform="translate(70.332 204.375)"/></g></g></g><g fill="#FFF"><g><g><path d="M 9.601562 0 L 9.601562 -28.800781 L 14.71875 -28.800781 L 14.71875 0 L 21.757812 0 L 21.757812 -29.4375 C 21.757812 -31.101562 21.183594 -32.574219 20.03125 -33.726562 C 18.878906 -34.878906 17.535156 -35.519531 16 -35.519531 L 14.71875 -35.519531 C 13.121094 -35.519531 11.777344 -34.878906 10.625 -33.726562 C 10.175781 -33.277344 9.855469 -32.765625 9.601562 -32.253906 L 9.601562 -46.078125 L 2.558594 -42.558594 L 2.558594 0 Z M 9.601562 0" transform="translate(107.45 204.375)"/></g></g></g><g fill="#FFF"><g><g><path d="M 2.558594 -42.558594 L 2.558594 -36.160156 L 9.601562 -39.679688 L 9.601562 -46.078125 Z M 2.558594 0 L 9.601562 0 L 9.601562 -36.480469 L 2.558594 -32.957031 Z M 2.558594 0" transform="translate(131.768 204.375)"/></g></g></g><g fill="#FFF"><g><g><path d="M 18.175781 -35.519531 L 1.921875 -35.519531 L 1.921875 -28.800781 L 10.878906 -28.800781 L 1.921875 -6.71875 L 1.921875 0 L 18.238281 0 L 18.238281 -6.71875 L 9.28125 -6.71875 L 18.175781 -28.800781 Z M 18.175781 -35.519531" transform="translate(143.927 204.375)"/></g></g></g><g fill="#A6A6A6" fill-opacity=".4"><g><g><path d="M 27.199219 0 L 16.449219 -26.429688 L 24.765625 -44.476562 L 17.085938 -44.476562 L 9.601562 -26.941406 L 9.601562 -44.476562 L 2.558594 -44.476562 L 2.558594 0 L 9.601562 0 L 9.601562 -11.96875 L 12.800781 -18.558594 L 19.648438 0 Z M 27.199219 0" transform="translate(215.666 208.18)"/></g></g></g><g fill="#A6A6A6" fill-opacity=".4"><g><g><path d="M 2.558594 -42.558594 L 2.558594 -36.160156 L 9.601562 -39.679688 L 9.601562 -46.078125 Z M 2.558594 0 L 9.601562 0 L 9.601562 -36.480469 L 2.558594 -32.957031 Z M 2.558594 0" transform="translate(241.584 208.18)"/></g></g></g><g fill="#A6A6A6" fill-opacity=".4"><g><g><path d="M 14.71875 -28.800781 L 14.71875 -6.71875 L 9.601562 -6.71875 L 9.601562 -28.800781 Z M 14.71875 -3.199219 L 14.71875 0 L 21.757812 0 L 21.757812 -46.078125 L 14.71875 -42.558594 L 14.71875 -32.253906 C 14.464844 -32.765625 14.078125 -33.277344 13.632812 -33.726562 C 12.480469 -34.878906 11.136719 -35.519531 9.601562 -35.519531 L 8.320312 -35.519531 C 6.71875 -35.519531 5.375 -34.878906 4.222656 -33.726562 C 3.070312 -32.574219 2.558594 -31.101562 2.558594 -29.4375 L 2.558594 -6.078125 C 2.558594 -4.414062 3.070312 -2.945312 4.222656 -1.792969 C 5.375 -0.574219 6.71875 0 8.320312 0 L 9.601562 0 C 11.136719 0 12.480469 -0.574219 13.632812 -1.726562 C 14.078125 -2.175781 14.464844 -2.6875 14.71875 -3.199219 Z M 14.71875 -3.199219" transform="translate(253.743 208.18)"/></g></g></g><g fill="#A6A6A6" fill-opacity=".4"><g><g><path d="M 2.558594 -29.4375 L 2.558594 -10.558594 L 14.71875 -16.640625 L 14.71875 -6.71875 L 9.601562 -6.71875 L 9.601562 -10.878906 L 2.558594 -7.359375 L 2.558594 -6.078125 C 2.558594 -4.351562 3.070312 -2.878906 4.222656 -1.726562 C 5.375 -0.574219 6.71875 0 8.320312 0 L 16 0 C 17.535156 0 18.878906 -0.574219 20.03125 -1.792969 C 21.183594 -2.945312 21.757812 -4.414062 21.757812 -6.078125 L 21.757812 -26.046875 L 9.601562 -19.96875 L 9.601562 -28.800781 L 14.71875 -28.800781 L 14.71875 -25.789062 L 21.757812 -29.3125 L 21.757812 -29.4375 C 21.757812 -31.101562 21.183594 -32.574219 20.03125 -33.726562 C 18.878906 -34.878906 17.535156 -35.519531 16 -35.519531 L 8.320312 -35.519531 C 6.71875 -35.519531 5.375 -34.941406 4.222656 -33.789062 C 3.070312 -32.640625 2.558594 -31.167969 2.558594 -29.4375 Z M 2.558594 -29.4375" transform="translate(278.062 208.18)"/></g></g></g><g fill="#FFF"><g><g><path d="M 27.199219 0 L 16.449219 -26.429688 L 24.765625 -44.476562 L 17.085938 -44.476562 L 9.601562 -26.941406 L 9.601562 -44.476562 L 2.558594 -44.476562 L 2.558594 0 L 9.601562 0 L 9.601562 -11.96875 L 12.800781 -18.558594 L 19.648438 0 Z M 27.199219 0" transform="translate(214.43 204.375)"/></g></g></g><g fill="#FFF"><g><g><path d="M 2.558594 -42.558594 L 2.558594 -36.160156 L 9.601562 -39.679688 L 9.601562 -46.078125 Z M 2.558594 0 L 9.601562 0 L 9.601562 -36.480469 L 2.558594 -32.957031 Z M 2.558594 0" transform="translate(240.348 204.375)"/></g></g></g><g fill="#FFF"><g><g><path d="M 14.71875 -28.800781 L 14.71875 -6.71875 L 9.601562 -6.71875 L 9.601562 -28.800781 Z M 14.71875 -3.199219 L 14.71875 0 L 21.757812 0 L 21.757812 -46.078125 L 14.71875 -42.558594 L 14.71875 -32.253906 C 14.464844 -32.765625 14.078125 -33.277344 13.632812 -33.726562 C 12.480469 -34.878906 11.136719 -35.519531 9.601562 -35.519531 L 8.320312 -35.519531 C 6.71875 -35.519531 5.375 -34.878906 4.222656 -33.726562 C 3.070312 -32.574219 2.558594 -31.101562 2.558594 -29.4375 L 2.558594 -6.078125 C 2.558594 -4.414062 3.070312 -2.945312 4.222656 -1.792969 C 5.375 -0.574219 6.71875 0 8.320312 0 L 9.601562 0 C 11.136719 0 12.480469 -0.574219 13.632812 -1.726562 C 14.078125 -2.175781 14.464844 -2.6875 14.71875 -3.199219 Z M 14.71875 -3.199219" transform="translate(252.507 204.375)"/></g></g></g><g fill="#FFF"><g><g><path d="M 2.558594 -29.4375 L 2.558594 -10.558594 L 14.71875 -16.640625 L 14.71875 -6.71875 L 9.601562 -6.71875 L 9.601562 -10.878906 L 2.558594 -7.359375 L 2.558594 -6.078125 C 2.558594 -4.351562 3.070312 -2.878906 4.222656 -1.726562 C 5.375 -0.574219 6.71875 0 8.320312 0 L 16 0 C 17.535156 0 18.878906 -0.574219 20.03125 -1.792969 C 21.183594 -2.945312 21.757812 -4.414062 21.757812 -6.078125 L 21.757812 -26.046875 L 9.601562 -19.96875 L 9.601562 -28.800781 L 14.71875 -28.800781 L 14.71875 -25.789062 L 21.757812 -29.3125 L 21.757812 -29.4375 C 21.757812 -31.101562 21.183594 -32.574219 20.03125 -33.726562 C 18.878906 -34.878906 17.535156 -35.519531 16 -35.519531 L 8.320312 -35.519531 C 6.71875 -35.519531 5.375 -34.941406 4.222656 -33.789062 C 3.070312 -32.640625 2.558594 -31.167969 2.558594 -29.4375 Z M 2.558594 -29.4375" transform="translate(276.826 204.375)"/></g></g></g></svg>